<?xml version="1.0" encoding="UTF-8" standalone="no"?><svg xmlns="http://www.w3.org/2000/svg" xmlns:xlink="http://www.w3.org/1999/xlink" clip-rule="evenodd" stroke-miterlimit="10" viewBox="0 0 1280 720"><desc>SVG generated by Keynote</desc><defs></defs><g transform="matrix(1.00, 0.00, -0.00, -1.00, 0.0, 720.0)"><path d="M 0.0 720.0 L 1280.0 720.0 L 1280.0 0.0 L 0.0 0.0 Z M 0.0 720.0 " fill="#FAF6EB"></path><text xml:space="preserve" font-family="Helvetica-Bold,Helvetica" font-weight="bold" font-size="76.0" fill="#4E5A66" transform="matrix(1.00, 0.00, -0.00, -1.00, 352.7, 327.8)">R</text><text xml:space="preserve" font-family="Helvetica-Bold,Helvetica" font-weight="bold" font-size="76.0" fill="#4E5A66" transform="matrix(1.00, 0.00, -0.00, -1.00, 407.6, 327.8)">e</text><text xml:space="preserve" font-family="Helvetica-Bold,Helvetica" font-weight="bold" font-size="76.0" fill="#4E5A66" transform="matrix(1.00, 0.00, -0.00, -1.00, 449.9, 327.8)">s</text><text xml:space="preserve" font-family="Helvetica-Bold,Helvetica" font-weight="bold" font-size="76.0" fill="#4E5A66" transform="matrix(1.00, 0.00, -0.00, -1.00, 492.2, 327.8)">o</text><text xml:space="preserve" font-family="Helvetica-Bold,Helvetica" font-weight="bold" font-size="76.0" fill="#4E5A66" transform="matrix(1.00, 0.00, -0.00, -1.00, 538.6, 327.8)">u</text><text xml:space="preserve" font-family="Helvetica-Bold,Helvetica" font-weight="bold" font-size="76.0" fill="#4E5A66" transform="matrix(1.00, 0.00, -0.00, -1.00, 585.1, 327.8)">r</text><text xml:space="preserve" font-family="Helvetica-Bold,Helvetica" font-weight="bold" font-size="76.0" fill="#4E5A66" transform="matrix(1.00, 0.00, -0.00, -1.00, 614.7, 327.8)">c</text><text xml:space="preserve" font-family="Helvetica-Bold,Helvetica" font-weight="bold" font-size="76.0" fill="#4E5A66" transform="matrix(1.00, 0.00, -0.00, -1.00, 657.0, 327.8)">e</text><text xml:space="preserve" font-family="Helvetica-Bold,Helvetica" font-weight="bold" font-size="76.0" fill="#4E5A66" transform="matrix(1.00, 0.00, -0.00, -1.00, 699.2, 327.8)"> </text><text xml:space="preserve" font-family="Helvetica-Bold,Helvetica" font-weight="bold" font-size="76.0" fill="#4E5A66" transform="matrix(1.00, 0.00, -0.00, -1.00, 720.4, 327.8)">v</text><text xml:space="preserve" font-family="Helvetica-Bold,Helvetica" font-weight="bold" font-size="76.0" fill="#4E5A66" transform="matrix(1.00, 0.00, -0.00, -1.00, 762.7, 327.8)">i</text><text xml:space="preserve" font-family="Helvetica-Bold,Helvetica" font-weight="bold" font-size="76.0" fill="#4E5A66" transform="matrix(1.00, 0.00, -0.00, -1.00, 783.8, 327.8)">e</text><text xml:space="preserve" font-family="Helvetica-Bold,Helvetica" font-weight="bold" font-size="76.0" fill="#4E5A66" transform="matrix(1.00, 0.00, -0.00, -1.00, 826.1, 327.8)">w</text><text xml:space="preserve" font-family="Helvetica-Bold,Helvetica" font-weight="bold" font-size="76.0" fill="#4E5A66" transform="matrix(1.00, 0.00, -0.00, -1.00, 885.2, 327.8)">s</text></g></svg>