<?xml version="1.0" encoding="UTF-8" standalone="no"?><svg xmlns="http://www.w3.org/2000/svg" xmlns:xlink="http://www.w3.org/1999/xlink" clip-rule="evenodd" stroke-miterlimit="10" viewBox="0 0 1280 720"><desc>SVG generated by Keynote</desc><defs></defs><g transform="matrix(1.00, 0.00, -0.00, -1.00, 0.0, 720.0)"><path d="M 0.0 720.0 L 1280.0 720.0 L 1280.0 0.0 L 0.0 0.0 Z M 0.0 720.0 " fill="#FAF6EB"></path><text xml:space="preserve" font-family="Helvetica-Bold,Helvetica" font-weight="bold" font-size="76.0" fill="#4E5A66" transform="matrix(1.00, 0.00, -0.00, -1.00, 95.0, 528.1)">C</text><text xml:space="preserve" font-family="Helvetica-Bold,Helvetica" font-weight="bold" font-size="76.0" fill="#4E5A66" transform="matrix(1.00, 0.00, -0.00, -1.00, 149.9, 528.1)">h</text><text xml:space="preserve" font-family="Helvetica-Bold,Helvetica" font-weight="bold" font-size="76.0" fill="#4E5A66" transform="matrix(1.00, 0.00, -0.00, -1.00, 196.3, 528.1)">r</text><text xml:space="preserve" font-family="Helvetica-Bold,Helvetica" font-weight="bold" font-size="76.0" fill="#4E5A66" transform="matrix(1.00, 0.00, -0.00, -1.00, 225.9, 528.1)">o</text><text xml:space="preserve" font-family="Helvetica-Bold,Helvetica" font-weight="bold" font-size="76.0" fill="#4E5A66" transform="matrix(1.00, 0.00, -0.00, -1.00, 272.4, 528.1)">m</text><text xml:space="preserve" font-family="Helvetica-Bold,Helvetica" font-weight="bold" font-size="76.0" fill="#4E5A66" transform="matrix(1.00, 0.00, -0.00, -1.00, 340.0, 528.1)">e</text><text xml:space="preserve" font-family="Helvetica-Bold,Helvetica" font-weight="bold" font-size="76.0" fill="#4E5A66" transform="matrix(1.00, 0.00, -0.00, -1.00, 382.2, 528.1)"> </text><text xml:space="preserve" font-family="Helvetica-Bold,Helvetica" font-weight="bold" font-size="76.0" fill="#4E5A66" transform="matrix(1.00, 0.00, -0.00, -1.00, 403.4, 528.1)">D</text><text xml:space="preserve" font-family="Helvetica-Bold,Helvetica" font-weight="bold" font-size="76.0" fill="#4E5A66" transform="matrix(1.00, 0.00, -0.00, -1.00, 458.3, 528.1)">e</text><text xml:space="preserve" font-family="Helvetica-Bold,Helvetica" font-weight="bold" font-size="76.0" fill="#4E5A66" transform="matrix(1.00, 0.00, -0.00, -1.00, 500.6, 528.1)">v</text><text xml:space="preserve" font-family="Helvetica-Bold,Helvetica" font-weight="bold" font-size="76.0" fill="#4E5A66" transform="matrix(1.00, 0.00, -0.00, -1.00, 542.8, 528.1)">T</text><text xml:space="preserve" font-family="Helvetica-Bold,Helvetica" font-weight="bold" font-size="76.0" fill="#4E5A66" transform="matrix(1.00, 0.00, -0.00, -1.00, 583.7, 528.1)">o</text><text xml:space="preserve" font-family="Helvetica-Bold,Helvetica" font-weight="bold" font-size="76.0" fill="#4E5A66" transform="matrix(1.00, 0.00, -0.00, -1.00, 630.1, 528.1)">o</text><text xml:space="preserve" font-family="Helvetica-Bold,Helvetica" font-weight="bold" font-size="76.0" fill="#4E5A66" transform="matrix(1.00, 0.00, -0.00, -1.00, 676.5, 528.1)">l</text><text xml:space="preserve" font-family="Helvetica-Bold,Helvetica" font-weight="bold" font-size="76.0" fill="#4E5A66" transform="matrix(1.00, 0.00, -0.00, -1.00, 697.7, 528.1)">s</text><text xml:space="preserve" font-family="Helvetica,Helvetica" font-size="32.0" fill="#4E5A66" transform="matrix(1.00, 0.00, -0.00, -1.00, 95.0, 465.4)">A</text><text xml:space="preserve" font-family="Helvetica,Helvetica" font-size="32.0" fill="#4E5A66" transform="matrix(1.00, 0.00, -0.00, -1.00, 116.3, 465.4)">n</text><text xml:space="preserve" font-family="Helvetica,Helvetica" font-size="32.0" fill="#4E5A66" transform="matrix(1.00, 0.00, -0.00, -1.00, 134.1, 465.4)"> </text><text xml:space="preserve" font-family="Helvetica,Helvetica" font-size="32.0" fill="#4E5A66" transform="matrix(1.00, 0.00, -0.00, -1.00, 143.0, 465.4)">o</text><text xml:space="preserve" font-family="Helvetica,Helvetica" font-size="32.0" fill="#4E5A66" transform="matrix(1.00, 0.00, -0.00, -1.00, 160.8, 465.4)">v</text><text xml:space="preserve" font-family="Helvetica,Helvetica" font-size="32.0" fill="#4E5A66" transform="matrix(1.00, 0.00, -0.00, -1.00, 176.8, 465.4)">e</text><text xml:space="preserve" font-family="Helvetica,Helvetica" font-size="32.0" fill="#4E5A66" transform="matrix(1.00, 0.00, -0.00, -1.00, 194.6, 465.4)">r</text><text xml:space="preserve" font-family="Helvetica,Helvetica" font-size="32.0" fill="#4E5A66" transform="matrix(1.00, 0.00, -0.00, -1.00, 205.3, 465.4)">v</text><text xml:space="preserve" font-family="Helvetica,Helvetica" font-size="32.0" fill="#4E5A66" transform="matrix(1.00, 0.00, -0.00, -1.00, 221.3, 465.4)">i</text><text xml:space="preserve" font-family="Helvetica,Helvetica" font-size="32.0" fill="#4E5A66" transform="matrix(1.00, 0.00, -0.00, -1.00, 228.4, 465.4)">e</text><text xml:space="preserve" font-family="Helvetica,Helvetica" font-size="32.0" fill="#4E5A66" transform="matrix(1.00, 0.00, -0.00, -1.00, 246.2, 465.4)">w</text><image xlink:href="A3E92B01D2A3F62A09C15B2F3019C632.png" width="512.00" height="512.00" transform="matrix(0.69, 0.00, -0.00, -0.69, 876.0, 392.0)"></image></g></svg>