<?xml version="1.0" encoding="UTF-8" standalone="no"?><svg xmlns="http://www.w3.org/2000/svg" xmlns:xlink="http://www.w3.org/1999/xlink" clip-rule="evenodd" stroke-miterlimit="10" viewBox="0 0 1280 720"><desc>SVG generated by Keynote</desc><defs></defs><g transform="matrix(1.00, 0.00, -0.00, -1.00, 0.0, 720.0)"><path d="M 0.0 720.0 L 1280.0 720.0 L 1280.0 0.0 L 0.0 0.0 Z M 0.0 720.0 " fill="#FAF6EB"></path><text xml:space="preserve" font-family="Helvetica-Bold,Helvetica" font-weight="bold" font-size="76.0" fill="#4E5A66" transform="matrix(1.00, 0.00, -0.00, -1.00, 367.6, 327.8)">S</text><text xml:space="preserve" font-family="Helvetica-Bold,Helvetica" font-weight="bold" font-size="76.0" fill="#4E5A66" transform="matrix(1.00, 0.00, -0.00, -1.00, 418.3, 327.8)">t</text><text xml:space="preserve" font-family="Helvetica-Bold,Helvetica" font-weight="bold" font-size="76.0" fill="#4E5A66" transform="matrix(1.00, 0.00, -0.00, -1.00, 443.6, 327.8)">o</text><text xml:space="preserve" font-family="Helvetica-Bold,Helvetica" font-weight="bold" font-size="76.0" fill="#4E5A66" transform="matrix(1.00, 0.00, -0.00, -1.00, 490.0, 327.8)">r</text><text xml:space="preserve" font-family="Helvetica-Bold,Helvetica" font-weight="bold" font-size="76.0" fill="#4E5A66" transform="matrix(1.00, 0.00, -0.00, -1.00, 519.6, 327.8)">e</text><text xml:space="preserve" font-family="Helvetica-Bold,Helvetica" font-weight="bold" font-size="76.0" fill="#4E5A66" transform="matrix(1.00, 0.00, -0.00, -1.00, 561.9, 327.8)"> </text><text xml:space="preserve" font-family="Helvetica-Bold,Helvetica" font-weight="bold" font-size="76.0" fill="#4E5A66" transform="matrix(1.00, 0.00, -0.00, -1.00, 583.0, 327.8)">a</text><text xml:space="preserve" font-family="Helvetica-Bold,Helvetica" font-weight="bold" font-size="76.0" fill="#4E5A66" transform="matrix(1.00, 0.00, -0.00, -1.00, 625.3, 327.8)">s</text><text xml:space="preserve" font-family="Helvetica-Bold,Helvetica" font-weight="bold" font-size="76.0" fill="#4E5A66" transform="matrix(1.00, 0.00, -0.00, -1.00, 667.5, 327.8)"> </text><text xml:space="preserve" font-family="Helvetica-Bold,Helvetica" font-weight="bold" font-size="76.0" fill="#4E5A66" transform="matrix(1.00, 0.00, -0.00, -1.00, 688.6, 327.8)">g</text><text xml:space="preserve" font-family="Helvetica-Bold,Helvetica" font-weight="bold" font-size="76.0" fill="#4E5A66" transform="matrix(1.00, 0.00, -0.00, -1.00, 735.1, 327.8)">l</text><text xml:space="preserve" font-family="Helvetica-Bold,Helvetica" font-weight="bold" font-size="76.0" fill="#4E5A66" transform="matrix(1.00, 0.00, -0.00, -1.00, 756.2, 327.8)">o</text><text xml:space="preserve" font-family="Helvetica-Bold,Helvetica" font-weight="bold" font-size="76.0" fill="#4E5A66" transform="matrix(1.00, 0.00, -0.00, -1.00, 802.6, 327.8)">b</text><text xml:space="preserve" font-family="Helvetica-Bold,Helvetica" font-weight="bold" font-size="76.0" fill="#4E5A66" transform="matrix(1.00, 0.00, -0.00, -1.00, 849.0, 327.8)">a</text><text xml:space="preserve" font-family="Helvetica-Bold,Helvetica" font-weight="bold" font-size="76.0" fill="#4E5A66" transform="matrix(1.00, 0.00, -0.00, -1.00, 891.3, 327.8)">l</text></g></svg>