<?xml version="1.0" encoding="UTF-8" standalone="no"?><svg xmlns="http://www.w3.org/2000/svg" xmlns:xlink="http://www.w3.org/1999/xlink" clip-rule="evenodd" stroke-miterlimit="10" viewBox="0 0 1280 720"><desc>SVG generated by Keynote</desc><defs></defs><g transform="matrix(1.00, 0.00, -0.00, -1.00, 0.0, 720.0)"><path d="M 0.0 720.0 L 1280.0 720.0 L 1280.0 0.0 L 0.0 0.0 Z M 0.0 720.0 " fill="#FAF6EB"></path><text xml:space="preserve" font-family="Helvetica-Bold,Helvetica" font-weight="bold" font-size="76.0" fill="#4E5A66" transform="matrix(1.00, 0.00, -0.00, -1.00, 350.6, 327.8)">S</text><text xml:space="preserve" font-family="Helvetica-Bold,Helvetica" font-weight="bold" font-size="76.0" fill="#4E5A66" transform="matrix(1.00, 0.00, -0.00, -1.00, 401.3, 327.8)">e</text><text xml:space="preserve" font-family="Helvetica-Bold,Helvetica" font-weight="bold" font-size="76.0" fill="#4E5A66" transform="matrix(1.00, 0.00, -0.00, -1.00, 443.6, 327.8)">a</text><text xml:space="preserve" font-family="Helvetica-Bold,Helvetica" font-weight="bold" font-size="76.0" fill="#4E5A66" transform="matrix(1.00, 0.00, -0.00, -1.00, 485.9, 327.8)">r</text><text xml:space="preserve" font-family="Helvetica-Bold,Helvetica" font-weight="bold" font-size="76.0" fill="#4E5A66" transform="matrix(1.00, 0.00, -0.00, -1.00, 515.5, 327.8)">c</text><text xml:space="preserve" font-family="Helvetica-Bold,Helvetica" font-weight="bold" font-size="76.0" fill="#4E5A66" transform="matrix(1.00, 0.00, -0.00, -1.00, 557.8, 327.8)">h</text><text xml:space="preserve" font-family="Helvetica-Bold,Helvetica" font-weight="bold" font-size="76.0" fill="#4E5A66" transform="matrix(1.00, 0.00, -0.00, -1.00, 604.2, 327.8)"> </text><text xml:space="preserve" font-family="Helvetica-Bold,Helvetica" font-weight="bold" font-size="76.0" fill="#4E5A66" transform="matrix(1.00, 0.00, -0.00, -1.00, 625.3, 327.8)">i</text><text xml:space="preserve" font-family="Helvetica-Bold,Helvetica" font-weight="bold" font-size="76.0" fill="#4E5A66" transform="matrix(1.00, 0.00, -0.00, -1.00, 646.4, 327.8)">n</text><text xml:space="preserve" font-family="Helvetica-Bold,Helvetica" font-weight="bold" font-size="76.0" fill="#4E5A66" transform="matrix(1.00, 0.00, -0.00, -1.00, 692.8, 327.8)"> </text><text xml:space="preserve" font-family="Helvetica-Bold,Helvetica" font-weight="bold" font-size="76.0" fill="#4E5A66" transform="matrix(1.00, 0.00, -0.00, -1.00, 713.9, 327.8)">s</text><text xml:space="preserve" font-family="Helvetica-Bold,Helvetica" font-weight="bold" font-size="76.0" fill="#4E5A66" transform="matrix(1.00, 0.00, -0.00, -1.00, 756.2, 327.8)">t</text><text xml:space="preserve" font-family="Helvetica-Bold,Helvetica" font-weight="bold" font-size="76.0" fill="#4E5A66" transform="matrix(1.00, 0.00, -0.00, -1.00, 781.5, 327.8)">y</text><text xml:space="preserve" font-family="Helvetica-Bold,Helvetica" font-weight="bold" font-size="76.0" fill="#4E5A66" transform="matrix(1.00, 0.00, -0.00, -1.00, 823.7, 327.8)">l</text><text xml:space="preserve" font-family="Helvetica-Bold,Helvetica" font-weight="bold" font-size="76.0" fill="#4E5A66" transform="matrix(1.00, 0.00, -0.00, -1.00, 844.8, 327.8)">e</text><text xml:space="preserve" font-family="Helvetica-Bold,Helvetica" font-weight="bold" font-size="76.0" fill="#4E5A66" transform="matrix(1.00, 0.00, -0.00, -1.00, 887.1, 327.8)">s</text></g></svg>