<?xml version="1.0" encoding="UTF-8" standalone="no"?><svg xmlns="http://www.w3.org/2000/svg" xmlns:xlink="http://www.w3.org/1999/xlink" clip-rule="evenodd" stroke-miterlimit="10" viewBox="0 0 1280 720"><desc>SVG generated by Keynote</desc><defs></defs><g transform="matrix(1.00, 0.00, -0.00, -1.00, 0.0, 720.0)"><path d="M 0.0 720.0 L 1280.0 720.0 L 1280.0 0.0 L 0.0 0.0 Z M 0.0 720.0 " fill="#FAF6EB"></path><text xml:space="preserve" font-family="Helvetica-Bold,Helvetica" font-weight="bold" font-size="76.0" fill="#4E5A66" transform="matrix(1.00, 0.00, -0.00, -1.00, 164.9, 327.8)">E</text><text xml:space="preserve" font-family="Helvetica-Bold,Helvetica" font-weight="bold" font-size="76.0" fill="#4E5A66" transform="matrix(1.00, 0.00, -0.00, -1.00, 215.5, 327.8)">v</text><text xml:space="preserve" font-family="Helvetica-Bold,Helvetica" font-weight="bold" font-size="76.0" fill="#4E5A66" transform="matrix(1.00, 0.00, -0.00, -1.00, 257.8, 327.8)">e</text><text xml:space="preserve" font-family="Helvetica-Bold,Helvetica" font-weight="bold" font-size="76.0" fill="#4E5A66" transform="matrix(1.00, 0.00, -0.00, -1.00, 300.1, 327.8)">n</text><text xml:space="preserve" font-family="Helvetica-Bold,Helvetica" font-weight="bold" font-size="76.0" fill="#4E5A66" transform="matrix(1.00, 0.00, -0.00, -1.00, 346.5, 327.8)">t</text><text xml:space="preserve" font-family="Helvetica-Bold,Helvetica" font-weight="bold" font-size="76.0" fill="#4E5A66" transform="matrix(1.00, 0.00, -0.00, -1.00, 371.8, 327.8)"> </text><text xml:space="preserve" font-family="Helvetica-Bold,Helvetica" font-weight="bold" font-size="76.0" fill="#4E5A66" transform="matrix(1.00, 0.00, -0.00, -1.00, 392.9, 327.8)">l</text><text xml:space="preserve" font-family="Helvetica-Bold,Helvetica" font-weight="bold" font-size="76.0" fill="#4E5A66" transform="matrix(1.00, 0.00, -0.00, -1.00, 414.0, 327.8)">i</text><text xml:space="preserve" font-family="Helvetica-Bold,Helvetica" font-weight="bold" font-size="76.0" fill="#4E5A66" transform="matrix(1.00, 0.00, -0.00, -1.00, 435.1, 327.8)">s</text><text xml:space="preserve" font-family="Helvetica-Bold,Helvetica" font-weight="bold" font-size="76.0" fill="#4E5A66" transform="matrix(1.00, 0.00, -0.00, -1.00, 477.4, 327.8)">t</text><text xml:space="preserve" font-family="Helvetica-Bold,Helvetica" font-weight="bold" font-size="76.0" fill="#4E5A66" transform="matrix(1.00, 0.00, -0.00, -1.00, 502.7, 327.8)">e</text><text xml:space="preserve" font-family="Helvetica-Bold,Helvetica" font-weight="bold" font-size="76.0" fill="#4E5A66" transform="matrix(1.00, 0.00, -0.00, -1.00, 545.0, 327.8)">n</text><text xml:space="preserve" font-family="Helvetica-Bold,Helvetica" font-weight="bold" font-size="76.0" fill="#4E5A66" transform="matrix(1.00, 0.00, -0.00, -1.00, 591.4, 327.8)">e</text><text xml:space="preserve" font-family="Helvetica-Bold,Helvetica" font-weight="bold" font-size="76.0" fill="#4E5A66" transform="matrix(1.00, 0.00, -0.00, -1.00, 633.7, 327.8)">r</text><text xml:space="preserve" font-family="Helvetica-Bold,Helvetica" font-weight="bold" font-size="76.0" fill="#4E5A66" transform="matrix(1.00, 0.00, -0.00, -1.00, 663.3, 327.8)"> </text><text xml:space="preserve" font-family="Helvetica-Bold,Helvetica" font-weight="bold" font-size="76.0" fill="#4E5A66" transform="matrix(1.00, 0.00, -0.00, -1.00, 684.4, 327.8)">b</text><text xml:space="preserve" font-family="Helvetica-Bold,Helvetica" font-weight="bold" font-size="76.0" fill="#4E5A66" transform="matrix(1.00, 0.00, -0.00, -1.00, 730.8, 327.8)">r</text><text xml:space="preserve" font-family="Helvetica-Bold,Helvetica" font-weight="bold" font-size="76.0" fill="#4E5A66" transform="matrix(1.00, 0.00, -0.00, -1.00, 760.4, 327.8)">e</text><text xml:space="preserve" font-family="Helvetica-Bold,Helvetica" font-weight="bold" font-size="76.0" fill="#4E5A66" transform="matrix(1.00, 0.00, -0.00, -1.00, 802.7, 327.8)">a</text><text xml:space="preserve" font-family="Helvetica-Bold,Helvetica" font-weight="bold" font-size="76.0" fill="#4E5A66" transform="matrix(1.00, 0.00, -0.00, -1.00, 844.9, 327.8)">k</text><text xml:space="preserve" font-family="Helvetica-Bold,Helvetica" font-weight="bold" font-size="76.0" fill="#4E5A66" transform="matrix(1.00, 0.00, -0.00, -1.00, 887.2, 327.8)">p</text><text xml:space="preserve" font-family="Helvetica-Bold,Helvetica" font-weight="bold" font-size="76.0" fill="#4E5A66" transform="matrix(1.00, 0.00, -0.00, -1.00, 933.6, 327.8)">o</text><text xml:space="preserve" font-family="Helvetica-Bold,Helvetica" font-weight="bold" font-size="76.0" fill="#4E5A66" transform="matrix(1.00, 0.00, -0.00, -1.00, 980.0, 327.8)">i</text><text xml:space="preserve" font-family="Helvetica-Bold,Helvetica" font-weight="bold" font-size="76.0" fill="#4E5A66" transform="matrix(1.00, 0.00, -0.00, -1.00, 1001.1, 327.8)">n</text><text xml:space="preserve" font-family="Helvetica-Bold,Helvetica" font-weight="bold" font-size="76.0" fill="#4E5A66" transform="matrix(1.00, 0.00, -0.00, -1.00, 1047.6, 327.8)">t</text><text xml:space="preserve" font-family="Helvetica-Bold,Helvetica" font-weight="bold" font-size="76.0" fill="#4E5A66" transform="matrix(1.00, 0.00, -0.00, -1.00, 1072.9, 327.8)">s</text></g></svg>